<?xml version="1.0" standalone="no"?>
<!DOCTYPE svg PUBLIC "-//W3C//DTD SVG 20010904//EN"
 "http://www.w3.org/TR/2001/REC-SVG-20010904/DTD/svg10.dtd">
<svg version="1.0" xmlns="http://www.w3.org/2000/svg"
 width="1200.000000pt" height="1200.000000pt" viewBox="0 0 1200.000000 1200.000000"
 preserveAspectRatio="xMidYMid meet">
<metadata>
Created by potrace 1.11, written by Peter Selinger 2001-2013
</metadata>
<g transform="translate(0.000000,1200.000000) scale(0.100000,-0.100000)"
fill="#000000" stroke="none">
<path d="M1005 10312 c-2 -2 3 -22 10 -45 59 -180 149 -464 151 -473 1 -6 22
-74 47 -150 25 -77 71 -220 102 -319 68 -214 121 -382 180 -565 24 -74 73
-229 110 -345 37 -115 80 -250 96 -300 30 -94 69 -216 189 -595 39 -124 102
-322 140 -440 38 -118 108 -339 155 -490 48 -151 91 -284 95 -295 5 -11 27
-81 50 -155 23 -74 50 -160 60 -190 10 -30 42 -129 70 -220 29 -91 74 -235
102 -320 50 -158 72 -227 173 -545 32 -99 65 -205 75 -235 10 -30 46 -143 80
-250 34 -107 65 -206 70 -220 5 -14 41 -126 80 -250 39 -124 85 -265 101 -315
16 -49 33 -103 38 -120 12 -40 84 -265 126 -395 18 -58 63 -199 100 -315 87
-276 201 -632 281 -880 l64 -200 874 0 c481 0 876 2 879 5 4 5 43 123 218 675
39 121 104 324 144 450 76 238 243 761 300 945 19 58 42 132 53 165 11 33 43
134 72 225 28 91 55 176 60 190 5 14 28 84 51 155 71 227 247 782 320 1010 39
121 105 326 146 455 41 129 106 334 145 455 38 121 83 263 100 315 16 52 36
113 43 135 16 47 109 338 110 345 1 9 96 304 103 323 5 12 28 -46 70 -180 35
-109 83 -259 107 -333 24 -74 73 -229 110 -345 37 -115 98 -309 137 -430 38
-121 95 -299 125 -395 30 -96 58 -182 61 -190 3 -8 6 -17 7 -20 3 -14 87 -278
95 -300 5 -14 39 -119 75 -235 37 -115 88 -277 115 -360 26 -82 71 -224 100
-315 78 -248 201 -633 207 -650 3 -8 7 -19 8 -25 8 -33 128 -403 135 -417 6
-10 10 -23 10 -30 0 -7 20 -73 44 -148 24 -74 65 -202 91 -285 26 -82 55 -175
65 -205 11 -30 34 -104 53 -165 38 -120 155 -487 218 -685 23 -69 44 -127 49
-130 15 -9 1745 -3 1744 6 -2 12 -61 208 -79 259 -8 22 -44 135 -80 250 -74
231 -115 362 -180 565 -113 352 -159 496 -161 505 -1 6 -23 75 -49 155 -26 80
-96 300 -157 490 -60 190 -128 401 -150 470 -22 69 -44 139 -48 155 -5 17 -20
64 -33 105 -25 75 -165 513 -272 855 -31 99 -61 189 -65 200 -5 11 -15 43 -24
70 -22 76 -116 373 -137 435 -10 30 -52 161 -93 290 -41 129 -106 334 -144
455 -39 121 -98 308 -132 415 -34 107 -70 220 -80 250 -10 30 -32 98 -48 150
-100 317 -165 520 -177 555 -7 22 -41 128 -75 235 -34 107 -81 256 -105 330
-60 185 -158 494 -255 805 -45 143 -86 269 -90 280 -5 11 -31 92 -59 180 l-50
160 -877 0 -876 0 -20 -60 c-10 -33 -27 -87 -38 -120 -10 -33 -68 -215 -128
-405 -61 -190 -142 -446 -182 -570 -39 -124 -102 -322 -140 -440 -38 -118
-103 -323 -145 -455 -42 -132 -81 -256 -88 -275 -6 -19 -12 -39 -13 -45 -1 -5
-16 -50 -32 -100 -30 -91 -133 -414 -179 -560 -14 -44 -33 -104 -44 -133 -10
-28 -19 -55 -20 -60 -1 -4 -3 -11 -5 -17 -68 -221 -114 -367 -149 -475 -24
-74 -76 -236 -115 -360 -39 -124 -79 -247 -88 -275 -9 -27 -17 -52 -17 -55 -1
-3 -13 -41 -27 -85 -14 -44 -56 -174 -93 -290 -37 -115 -96 -302 -132 -415
-36 -113 -84 -266 -108 -340 -24 -74 -56 -175 -71 -225 -16 -49 -31 -93 -34
-97 -3 -5 -18 29 -32 75 -49 152 -166 520 -233 732 -37 116 -73 228 -80 250
-8 22 -42 128 -75 235 -34 107 -81 256 -105 330 -58 179 -169 528 -212 665
-19 61 -40 128 -48 150 -7 22 -39 121 -70 220 -31 99 -63 198 -70 220 -8 22
-44 135 -80 250 -61 192 -156 490 -255 800 -21 66 -63 201 -94 300 -31 99 -63
198 -71 220 -7 22 -43 135 -80 250 -36 116 -86 271 -110 345 -23 74 -56 178
-73 230 -105 330 -174 548 -181 564 -7 19 -26 20 -880 20 -480 1 -874 0 -876
-2z"/>
</g>
</svg>
